<?xml version="1.0" encoding="UTF-8" standalone="no"?>
<svg
   inkscape:version="1.3.2 (091e20ef0f, 2023-11-25, custom)"
   sodipodi:docname="firefox-developer-icon.svg"
   id="svg23"
   version="1"
   height="64"
   width="64"
   xmlns:inkscape="http://www.inkscape.org/namespaces/inkscape"
   xmlns:sodipodi="http://sodipodi.sourceforge.net/DTD/sodipodi-0.dtd"
   xmlns="http://www.w3.org/2000/svg"
   xmlns:svg="http://www.w3.org/2000/svg"
   xmlns:rdf="http://www.w3.org/1999/02/22-rdf-syntax-ns#"
   xmlns:cc="http://creativecommons.org/ns#"
   xmlns:dc="http://purl.org/dc/elements/1.1/">
  <metadata
     id="metadata29">
    <rdf:RDF>
      <cc:Work
         rdf:about="">
        <dc:format>image/svg+xml</dc:format>
        <dc:type
           rdf:resource="http://purl.org/dc/dcmitype/StillImage" />
      </cc:Work>
    </rdf:RDF>
  </metadata>
  <defs
     id="defs27">
    <linearGradient
       gradientTransform="matrix(0.35014453,0,0,0.35014453,1.9909934,1.9983197)"
       gradientUnits="userSpaceOnUse"
       y2="66.806"
       x2="15.267"
       y1="12.061"
       x1="70.013"
       id="l">
      <stop
         id="stop969"
         stop-opacity=".8"
         stop-color="#fff44f"
         offset=".167" />
      <stop
         id="stop971"
         stop-opacity=".634"
         stop-color="#fff44f"
         offset=".266" />
      <stop
         id="stop973"
         stop-opacity=".217"
         stop-color="#fff44f"
         offset=".489" />
      <stop
         id="stop975"
         stop-opacity="0"
         stop-color="#fff44f"
         offset=".6" />
    </linearGradient>
    <radialGradient
       gradientUnits="userSpaceOnUse"
       gradientTransform="matrix(0.35014453,0,0,0.35014453,2794.3936,2986.6302)"
       r="80.685997"
       cy="-8503.8613"
       cx="-7918.9229"
       id="k">
      <stop
         id="stop960"
         stop-color="#fff44f"
         offset=".094" />
      <stop
         id="stop962"
         stop-color="#ffe141"
         offset=".231" />
      <stop
         id="stop964"
         stop-color="#ffaf1e"
         offset=".509" />
      <stop
         id="stop966"
         stop-color="#ff980e"
         offset=".626" />
    </radialGradient>
    <radialGradient
       gradientUnits="userSpaceOnUse"
       gradientTransform="matrix(0.35014453,0,0,0.35014453,2794.3936,2986.6302)"
       r="73.720001"
       cy="-8508.1758"
       cx="-7938.3828"
       id="j">
      <stop
         id="stop949"
         stop-color="#fff44f"
         offset=".137" />
      <stop
         id="stop951"
         stop-color="#ff980e"
         offset=".48" />
      <stop
         id="stop953"
         stop-color="#ff5634"
         offset=".592" />
      <stop
         id="stop955"
         stop-color="#ff3647"
         offset=".655" />
      <stop
         id="stop957"
         stop-color="#e31587"
         offset=".904" />
    </radialGradient>
    <radialGradient
       gradientUnits="userSpaceOnUse"
       gradientTransform="matrix(0.03676518,0.34839381,-0.22864438,0.02415997,-1638.0874,2967.7893)"
       r="86.499001"
       cy="-8522.8594"
       cx="-7927.165"
       id="i">
      <stop
         id="stop932"
         stop-color="#fff44f"
         offset="0" />
      <stop
         id="stop934"
         stop-color="#ffe847"
         offset=".06" />
      <stop
         id="stop936"
         stop-color="#ffc830"
         offset=".168" />
      <stop
         id="stop938"
         stop-color="#ff980e"
         offset=".304" />
      <stop
         id="stop940"
         stop-color="#ff8b16"
         offset=".356" />
      <stop
         id="stop942"
         stop-color="#ff672a"
         offset=".455" />
      <stop
         id="stop944"
         stop-color="#ff3647"
         offset=".57" />
      <stop
         id="stop946"
         stop-color="#e31587"
         offset=".737" />
    </radialGradient>
    <radialGradient
       gradientUnits="userSpaceOnUse"
       gradientTransform="matrix(0.35014453,0,0,0.35014453,2794.3936,2986.6302)"
       r="118.081"
       cy="-8535.9814"
       cx="-7915.9771"
       id="h">
      <stop
         id="stop921"
         stop-color="#fff44f"
         offset=".113" />
      <stop
         id="stop923"
         stop-color="#ff980e"
         offset=".456" />
      <stop
         id="stop925"
         stop-color="#ff5634"
         offset=".622" />
      <stop
         id="stop927"
         stop-color="#ff3647"
         offset=".716" />
      <stop
         id="stop929"
         stop-color="#e31587"
         offset=".904" />
    </radialGradient>
    <radialGradient
       gradientUnits="userSpaceOnUse"
       gradientTransform="matrix(0.35014453,0,0,0.35014453,2794.3936,2986.6302)"
       r="27.676001"
       cy="-8518.4268"
       cx="-7937.731"
       id="g">
      <stop
         id="stop908"
         stop-color="#ffe226"
         offset="0" />
      <stop
         id="stop910"
         stop-color="#ffdb27"
         offset=".121" />
      <stop
         id="stop912"
         stop-color="#ffc82a"
         offset=".295" />
      <stop
         id="stop914"
         stop-color="#ffa930"
         offset=".502" />
      <stop
         id="stop916"
         stop-color="#ff7e37"
         offset=".732" />
      <stop
         id="stop918"
         stop-color="#ff7139"
         offset=".792" />
    </radialGradient>
    <radialGradient
       gradientUnits="userSpaceOnUse"
       gradientTransform="matrix(0.34034048,-0.08228396,0.09628975,0.39846448,3535.4051,2744.9598)"
       r="20.396999"
       cy="-8491.5459"
       cx="-7935.6201"
       id="f">
      <stop
         id="stop899"
         stop-opacity="0"
         stop-color="#9059ff"
         offset=".206" />
      <stop
         id="stop901"
         stop-opacity=".064"
         stop-color="#8c4ff3"
         offset=".278" />
      <stop
         id="stop903"
         stop-opacity=".45"
         stop-color="#7716a8"
         offset=".747" />
      <stop
         id="stop905"
         stop-opacity=".6"
         stop-color="#6e008b"
         offset=".975" />
    </radialGradient>
    <radialGradient
       gradientUnits="userSpaceOnUse"
       gradientTransform="matrix(0.35014453,0,0,0.35014453,2794.3936,2986.6302)"
       r="38.471001"
       cy="-8460.9844"
       cx="-7945.6479"
       id="e">
      <stop
         id="stop890"
         stop-color="#3a8ee6"
         offset=".353" />
      <stop
         id="stop892"
         stop-color="#5c79f0"
         offset=".472" />
      <stop
         id="stop894"
         stop-color="#9059ff"
         offset=".669" />
      <stop
         id="stop896"
         stop-color="#c139e6"
         offset="1" />
    </radialGradient>
    <radialGradient
       gradientUnits="userSpaceOnUse"
       gradientTransform="matrix(0.35014453,0,0,0.35014453,2794.3936,2986.6302)"
       r="58.534"
       cy="-8533.457"
       cx="-7926.9702"
       id="d">
      <stop
         id="stop881"
         stop-color="#fff44f"
         offset=".132" />
      <stop
         id="stop883"
         stop-color="#ffdc3e"
         offset=".252" />
      <stop
         id="stop885"
         stop-color="#ff9d12"
         offset=".506" />
      <stop
         id="stop887"
         stop-color="#ff980e"
         offset=".526" />
    </radialGradient>
    <radialGradient
       gradientUnits="userSpaceOnUse"
       gradientTransform="matrix(0.35014453,0,0,0.35014453,2794.3936,2986.6302)"
       r="80.796997"
       cy="-8482.0889"
       cx="-7936.7109"
       id="c">
      <stop
         id="stop870"
         stop-color="#960e18"
         offset=".3" />
      <stop
         id="stop872"
         stop-opacity=".74"
         stop-color="#b11927"
         offset=".351" />
      <stop
         id="stop874"
         stop-opacity=".343"
         stop-color="#db293d"
         offset=".435" />
      <stop
         id="stop876"
         stop-opacity=".094"
         stop-color="#f5334b"
         offset=".497" />
      <stop
         id="stop878"
         stop-opacity="0"
         stop-color="#ff3750"
         offset=".53" />
    </radialGradient>
    <radialGradient
       gradientUnits="userSpaceOnUse"
       gradientTransform="matrix(0.35014453,0,0,0.35014453,2794.3936,2986.6302)"
       r="80.796997"
       cy="-8515.1211"
       cx="-7907.187"
       id="b">
      <stop
         id="stop851"
         stop-color="#ffbd4f"
         offset=".129" />
      <stop
         id="stop853"
         stop-color="#ffac31"
         offset=".186" />
      <stop
         id="stop855"
         stop-color="#ff9d17"
         offset=".247" />
      <stop
         id="stop857"
         stop-color="#ff980e"
         offset=".283" />
      <stop
         id="stop859"
         stop-color="#ff563b"
         offset=".403" />
      <stop
         id="stop861"
         stop-color="#ff3750"
         offset=".467" />
      <stop
         id="stop863"
         stop-color="#f5156c"
         offset=".71" />
      <stop
         id="stop865"
         stop-color="#eb0878"
         offset=".782" />
      <stop
         id="stop867"
         stop-color="#e50080"
         offset=".86" />
    </radialGradient>
    <linearGradient
       gradientTransform="matrix(0.35014453,0,0,0.35014453,1.9909934,1.9983197)"
       gradientUnits="userSpaceOnUse"
       y2="74.468002"
       x2="6.447"
       y1="12.393"
       x1="70.786003"
       id="a">
      <stop
         id="stop834"
         stop-color="#fff44f"
         offset=".048" />
      <stop
         id="stop836"
         stop-color="#ffe847"
         offset=".111" />
      <stop
         id="stop838"
         stop-color="#ffc830"
         offset=".225" />
      <stop
         id="stop840"
         stop-color="#ff980e"
         offset=".368" />
      <stop
         id="stop842"
         stop-color="#ff8b16"
         offset=".401" />
      <stop
         id="stop844"
         stop-color="#ff672a"
         offset=".462" />
      <stop
         id="stop846"
         stop-color="#ff3647"
         offset=".534" />
      <stop
         id="stop848"
         stop-color="#e31587"
         offset=".705" />
    </linearGradient>
    <linearGradient
       id="l-7"
       x1="70.013"
       y1="12.061"
       x2="15.267"
       y2="66.806"
       gradientUnits="userSpaceOnUse"
       gradientTransform="matrix(0.35014453,0,0,0.35014453,14.589441,2.5022534)">
      <stop
         offset=".167"
         stop-color="#fff44f"
         stop-opacity=".8"
         id="stop969-0" />
      <stop
         offset=".266"
         stop-color="#fff44f"
         stop-opacity=".634"
         id="stop971-2" />
      <stop
         offset=".489"
         stop-color="#fff44f"
         stop-opacity=".217"
         id="stop973-4" />
      <stop
         offset=".6"
         stop-color="#fff44f"
         stop-opacity="0"
         id="stop975-6" />
    </linearGradient>
    <radialGradient
       id="k-4"
       cx="-7918.9229"
       cy="-8503.8613"
       r="80.685997"
       gradientTransform="matrix(0.35014453,0,0,0.35014453,2806.992,2987.1342)"
       gradientUnits="userSpaceOnUse">
      <stop
         offset=".094"
         stop-color="#fff44f"
         id="stop960-9" />
      <stop
         offset=".231"
         stop-color="#ffe141"
         id="stop962-7" />
      <stop
         offset=".509"
         stop-color="#ffaf1e"
         id="stop964-4" />
      <stop
         offset=".626"
         stop-color="#ff980e"
         id="stop966-2" />
    </radialGradient>
    <radialGradient
       id="j-4"
       cx="-7938.3828"
       cy="-8508.1758"
       r="73.720001"
       gradientTransform="matrix(0.35014453,0,0,0.35014453,2806.992,2987.1342)"
       gradientUnits="userSpaceOnUse">
      <stop
         offset=".137"
         stop-color="#fff44f"
         id="stop949-7" />
      <stop
         offset=".48"
         stop-color="#ff980e"
         id="stop951-7" />
      <stop
         offset=".592"
         stop-color="#ff5634"
         id="stop953-4" />
      <stop
         offset=".655"
         stop-color="#ff3647"
         id="stop955-9" />
      <stop
         offset=".904"
         stop-color="#e31587"
         id="stop957-0" />
    </radialGradient>
    <radialGradient
       id="i-4"
       cx="-7927.165"
       cy="-8522.8594"
       r="86.499001"
       gradientTransform="matrix(0.03676518,0.34839381,-0.22864438,0.02415997,-1625.489,2968.2933)"
       gradientUnits="userSpaceOnUse">
      <stop
         offset="0"
         stop-color="#fff44f"
         id="stop932-2" />
      <stop
         offset=".06"
         stop-color="#ffe847"
         id="stop934-4" />
      <stop
         offset=".168"
         stop-color="#ffc830"
         id="stop936-1" />
      <stop
         offset=".304"
         stop-color="#ff980e"
         id="stop938-7" />
      <stop
         offset=".356"
         stop-color="#ff8b16"
         id="stop940-2" />
      <stop
         offset=".455"
         stop-color="#ff672a"
         id="stop942-0" />
      <stop
         offset=".57"
         stop-color="#ff3647"
         id="stop944-9" />
      <stop
         offset=".737"
         stop-color="#e31587"
         id="stop946-2" />
    </radialGradient>
    <radialGradient
       id="h-7"
       cx="-7915.9771"
       cy="-8535.9814"
       r="118.081"
       gradientTransform="matrix(0.35014453,0,0,0.35014453,2806.992,2987.1342)"
       gradientUnits="userSpaceOnUse">
      <stop
         offset=".113"
         stop-color="#fff44f"
         id="stop921-6" />
      <stop
         offset=".456"
         stop-color="#ff980e"
         id="stop923-0" />
      <stop
         offset=".622"
         stop-color="#ff5634"
         id="stop925-9" />
      <stop
         offset=".716"
         stop-color="#ff3647"
         id="stop927-1" />
      <stop
         offset=".904"
         stop-color="#e31587"
         id="stop929-8" />
    </radialGradient>
    <radialGradient
       id="g-9"
       cx="-7937.731"
       cy="-8518.4268"
       r="27.676001"
       gradientTransform="matrix(0.35014453,0,0,0.35014453,2806.992,2987.1342)"
       gradientUnits="userSpaceOnUse">
      <stop
         offset="0"
         stop-color="#ffe226"
         id="stop908-3" />
      <stop
         offset=".121"
         stop-color="#ffdb27"
         id="stop910-2" />
      <stop
         offset=".295"
         stop-color="#ffc82a"
         id="stop912-5" />
      <stop
         offset=".502"
         stop-color="#ffa930"
         id="stop914-9" />
      <stop
         offset=".732"
         stop-color="#ff7e37"
         id="stop916-7" />
      <stop
         offset=".792"
         stop-color="#ff7139"
         id="stop918-4" />
    </radialGradient>
    <radialGradient
       id="f-8"
       cx="-7935.6201"
       cy="-8491.5459"
       r="20.396999"
       gradientTransform="matrix(0.34034048,-0.08228396,0.09628975,0.39846448,3548.0035,2745.4638)"
       gradientUnits="userSpaceOnUse">
      <stop
         offset=".206"
         stop-color="#9059ff"
         stop-opacity="0"
         id="stop899-3" />
      <stop
         offset=".278"
         stop-color="#8c4ff3"
         stop-opacity=".064"
         id="stop901-8" />
      <stop
         offset=".747"
         stop-color="#7716a8"
         stop-opacity=".45"
         id="stop903-2" />
      <stop
         offset=".975"
         stop-color="#6e008b"
         stop-opacity=".6"
         id="stop905-2" />
    </radialGradient>
    <radialGradient
       id="e-5"
       cx="-7945.6479"
       cy="-8460.9844"
       r="38.471001"
       gradientTransform="matrix(0.35014453,0,0,0.35014453,2806.992,2987.1342)"
       gradientUnits="userSpaceOnUse">
      <stop
         offset=".353"
         stop-color="#3a8ee6"
         id="stop890-8" />
      <stop
         offset=".472"
         stop-color="#5c79f0"
         id="stop892-3" />
      <stop
         offset=".669"
         stop-color="#9059ff"
         id="stop894-7" />
      <stop
         offset="1"
         stop-color="#c139e6"
         id="stop896-3" />
    </radialGradient>
    <radialGradient
       id="d-5"
       cx="-7926.9702"
       cy="-8533.457"
       r="58.534"
       gradientTransform="matrix(0.35014453,0,0,0.35014453,2806.992,2987.1342)"
       gradientUnits="userSpaceOnUse">
      <stop
         offset=".132"
         stop-color="#fff44f"
         id="stop881-3" />
      <stop
         offset=".252"
         stop-color="#ffdc3e"
         id="stop883-6" />
      <stop
         offset=".506"
         stop-color="#ff9d12"
         id="stop885-5" />
      <stop
         offset=".526"
         stop-color="#ff980e"
         id="stop887-7" />
    </radialGradient>
    <radialGradient
       id="c-7"
       cx="-7936.7109"
       cy="-8482.0889"
       r="80.796997"
       gradientTransform="matrix(0.35014453,0,0,0.35014453,2806.992,2987.1342)"
       gradientUnits="userSpaceOnUse">
      <stop
         offset=".3"
         stop-color="#960e18"
         id="stop870-4" />
      <stop
         offset=".351"
         stop-color="#b11927"
         stop-opacity=".74"
         id="stop872-9" />
      <stop
         offset=".435"
         stop-color="#db293d"
         stop-opacity=".343"
         id="stop874-6" />
      <stop
         offset=".497"
         stop-color="#f5334b"
         stop-opacity=".094"
         id="stop876-0" />
      <stop
         offset=".53"
         stop-color="#ff3750"
         stop-opacity="0"
         id="stop878-1" />
    </radialGradient>
    <radialGradient
       id="b-8"
       cx="-7907.187"
       cy="-8515.1211"
       r="80.796997"
       gradientTransform="matrix(0.35014453,0,0,0.35014453,2806.992,2987.1342)"
       gradientUnits="userSpaceOnUse">
      <stop
         offset=".129"
         stop-color="#ffbd4f"
         id="stop851-4" />
      <stop
         offset=".186"
         stop-color="#ffac31"
         id="stop853-2" />
      <stop
         offset=".247"
         stop-color="#ff9d17"
         id="stop855-7" />
      <stop
         offset=".283"
         stop-color="#ff980e"
         id="stop857-7" />
      <stop
         offset=".403"
         stop-color="#ff563b"
         id="stop859-4" />
      <stop
         offset=".467"
         stop-color="#ff3750"
         id="stop861-4" />
      <stop
         offset=".71"
         stop-color="#f5156c"
         id="stop863-9" />
      <stop
         offset=".782"
         stop-color="#eb0878"
         id="stop865-3" />
      <stop
         offset=".86"
         stop-color="#e50080"
         id="stop867-9" />
    </radialGradient>
    <linearGradient
       id="a-7"
       x1="70.786003"
       y1="12.393"
       x2="6.447"
       y2="74.468002"
       gradientUnits="userSpaceOnUse"
       gradientTransform="matrix(0.35014453,0,0,0.35014453,14.589441,2.5022534)">
      <stop
         offset=".048"
         stop-color="#fff44f"
         id="stop834-6" />
      <stop
         offset=".111"
         stop-color="#ffe847"
         id="stop836-7" />
      <stop
         offset=".225"
         stop-color="#ffc830"
         id="stop838-2" />
      <stop
         offset=".368"
         stop-color="#ff980e"
         id="stop840-9" />
      <stop
         offset=".401"
         stop-color="#ff8b16"
         id="stop842-5" />
      <stop
         offset=".462"
         stop-color="#ff672a"
         id="stop844-0" />
      <stop
         offset=".534"
         stop-color="#ff3647"
         id="stop846-4" />
      <stop
         offset=".705"
         stop-color="#e31587"
         id="stop848-2" />
    </linearGradient>
    <linearGradient
       x1="68.298668"
       y1="12.77847"
       x2="65.108376"
       y2="89.877266"
       id="t"
       gradientTransform="matrix(0.50661479,0,0,0.71067156,7.8361608,7.9975499)"
       gradientUnits="userSpaceOnUse">
      <stop
         stop-color="#BFF3FF"
         stop-opacity=".8"
         offset="0%"
         id="stop4581" />
      <stop
         stop-color="#0DF"
         stop-opacity="0"
         offset="100%"
         id="stop4583" />
    </linearGradient>
    <linearGradient
       x1="25.577993"
       y1="4.5553231"
       x2="25.577993"
       y2="57.36784"
       id="s"
       gradientTransform="matrix(0.4769016,0,0,0.75494967,7.8361608,7.9975499)"
       gradientUnits="userSpaceOnUse">
      <stop
         stop-color="#BFF3FF"
         offset="0%"
         id="stop4576" />
      <stop
         stop-color="#0DF"
         stop-opacity="0"
         offset="100%"
         id="stop4578" />
    </linearGradient>
    <linearGradient
       x1="18.502363"
       y1="29.405516"
       x2="16.874853"
       y2="74.324791"
       id="r"
       gradientTransform="matrix(0.48002152,0,0,0.75004287,7.8361608,7.9975499)"
       gradientUnits="userSpaceOnUse">
      <stop
         stop-color="#0DF"
         stop-opacity=".4"
         offset="0%"
         id="stop4571" />
      <stop
         stop-color="#0DF"
         stop-opacity="0"
         offset="100%"
         id="stop4573" />
    </linearGradient>
    <linearGradient
       x1="29.194855"
       y1="12.974803"
       x2="20.563929"
       y2="26.988457"
       id="q"
       gradientTransform="matrix(0.58790363,0,0,0.61240771,7.8361608,7.9975499)"
       gradientUnits="userSpaceOnUse">
      <stop
         stop-color="#BFF3FF"
         stop-opacity=".8"
         offset="0%"
         id="stop4566" />
      <stop
         stop-color="#80EBFF"
         stop-opacity=".2"
         offset="100%"
         id="stop4568" />
    </linearGradient>
    <linearGradient
       x1="23.729013"
       y1="33.093102"
       x2="25.866491"
       y2="66.491219"
       id="p"
       gradientTransform="matrix(0.637546,0,0,0.56472271,7.8361608,7.9975499)"
       gradientUnits="userSpaceOnUse">
      <stop
         stop-color="#BFF3FF"
         stop-opacity=".8"
         offset="0%"
         id="stop4561" />
      <stop
         stop-color="#80EBFF"
         stop-opacity=".2"
         offset="100%"
         id="stop4563" />
    </linearGradient>
    <linearGradient
       x1="58.332546"
       y1="25.308983"
       x2="56.715939"
       y2="64.10762"
       id="o"
       gradientTransform="matrix(0.53483469,0,0,0.67317377,7.8361608,7.9975499)"
       gradientUnits="userSpaceOnUse">
      <stop
         stop-color="#BFF3FF"
         offset="0%"
         id="stop4556" />
      <stop
         stop-color="#0DF"
         stop-opacity="0"
         offset="100%"
         id="stop4558" />
    </linearGradient>
    <linearGradient
       x1="56.13681"
       y1="-0.63725394"
       x2="55.329029"
       y2="23.111471"
       id="n"
       gradientTransform="matrix(0.48929193,0,0,0.73583209,7.8361608,7.9975499)"
       gradientUnits="userSpaceOnUse">
      <stop
         stop-color="#BFF3FF"
         offset="0%"
         id="stop4551" />
      <stop
         stop-color="#AAF2FF"
         stop-opacity=".5"
         offset="100%"
         id="stop4553" />
    </linearGradient>
    <linearGradient
       x1="95.009483"
       y1="-0.82379484"
       x2="93.769226"
       y2="57.467999"
       id="m"
       gradientTransform="matrix(0.38565023,0,0,0.93358357,7.8361608,7.9975499)"
       gradientUnits="userSpaceOnUse">
      <stop
         stop-color="#BFF3FF"
         offset="0%"
         id="stop4546" />
      <stop
         stop-color="#0DF"
         stop-opacity="0"
         offset="100%"
         id="stop4548" />
    </linearGradient>
    <linearGradient
       x1="32.206059"
       y1="33.089981"
       x2="25.120728"
       y2="60.567245"
       id="l-9"
       gradientTransform="matrix(0.61821422,0,0,0.58238178,7.8361608,7.9975499)"
       gradientUnits="userSpaceOnUse">
      <stop
         stop-color="#BFF3FF"
         stop-opacity=".9"
         offset="0%"
         id="stop4541" />
      <stop
         stop-color="#80EBFF"
         stop-opacity=".5"
         offset="100%"
         id="stop4543" />
    </linearGradient>
    <linearGradient
       x1="68.991951"
       y1="11.815484"
       x2="17.021517"
       y2="66.148209"
       id="k-8"
       gradientTransform="matrix(0.5906503,0,0,0.60955986,7.8361608,7.9975499)"
       gradientUnits="userSpaceOnUse">
      <stop
         stop-color="#80EBFF"
         stop-opacity=".5"
         offset="24%"
         id="stop4536" />
      <stop
         stop-color="#0DF"
         stop-opacity="0"
         offset="70%"
         id="stop4538" />
    </linearGradient>
    <radialGradient
       cx="36.138844"
       cy="15.884185"
       fx="36.138844"
       fy="15.884185"
       r="71.746956"
       gradientTransform="matrix(0.60604438,0,0,0.59407646,7.8361608,7.9975499)"
       id="j-8"
       gradientUnits="userSpaceOnUse">
      <stop
         stop-color="#AAF2FF"
         offset="18%"
         id="stop4640" />
      <stop
         stop-color="#0DF"
         offset="43%"
         id="stop4642" />
      <stop
         stop-color="#0060DF"
         offset="69%"
         id="stop4644" />
    </radialGradient>
    <radialGradient
       cx="52.950813"
       cy="21.181152"
       fx="52.950813"
       fy="21.181152"
       r="85.359634"
       gradientTransform="matrix(0.63441013,0,0,0.56751415,7.8361608,7.9975499)"
       id="i-8"
       gradientUnits="userSpaceOnUse">
      <stop
         stop-color="#80EBFF"
         offset="29%"
         id="stop4635" />
      <stop
         stop-color="#00B3F4"
         offset="100%"
         id="stop4637" />
    </radialGradient>
    <radialGradient
       cx="37.300232"
       cy="5.5633535"
       fx="37.300232"
       fy="5.5633535"
       r="28.381479"
       gradientTransform="matrix(0.59930164,0,0,0.60076041,7.8361608,7.9975499)"
       id="h-5"
       gradientUnits="userSpaceOnUse">
      <stop
         stop-color="#0DF"
         offset="0%"
         id="stop4630" />
      <stop
         stop-color="#0090ED"
         offset="82%"
         id="stop4632" />
    </radialGradient>
    <linearGradient
       x1="59.666759"
       y1="0.0084456606"
       x2="65.72345"
       y2="30.049629"
       id="g-5"
       gradientTransform="matrix(0.46069588,0,0,0.78150625,7.8361608,7.9975499)"
       gradientUnits="userSpaceOnUse">
      <stop
         stop-color="#AAF2FF"
         offset="0%"
         id="stop4527" />
      <stop
         stop-color="#0DF"
         offset="29%"
         id="stop4529" />
      <stop
         stop-color="#0090ED"
         offset="74%"
         id="stop4531" />
      <stop
         stop-color="#0250BB"
         offset="100%"
         id="stop4533" />
    </linearGradient>
    <linearGradient
       x1="84.162506"
       y1="-3.6041653"
       x2="91.017914"
       y2="41.136391"
       id="f-3"
       gradientTransform="matrix(0.41312179,0,0,0.8715026,7.8361608,7.9975499)"
       gradientUnits="userSpaceOnUse">
      <stop
         stop-color="#AAF2FF"
         offset="0%"
         id="stop4518" />
      <stop
         stop-color="#0DF"
         offset="29%"
         id="stop4520" />
      <stop
         stop-color="#0090ED"
         offset="61%"
         id="stop4522" />
      <stop
         stop-color="#0250BB"
         offset="89%"
         id="stop4524" />
    </linearGradient>
    <radialGradient
       cx="61.191902"
       cy="-19.160242"
       r="139.74019"
       gradientTransform="matrix(0.65520166,0,0,0.54950518,7.8361608,7.7495184)"
       id="e-4"
       fx="61.191902"
       fy="-19.160242"
       gradientUnits="userSpaceOnUse">
      <stop
         stop-color="#80EBFF"
         offset="0%"
         id="stop4621" />
      <stop
         stop-color="#00B3F4"
         offset="47%"
         id="stop4623" />
      <stop
         stop-color="#0060DF"
         offset="84%"
         id="stop4625" />
      <stop
         stop-color="#592ACB"
         offset="100%"
         id="stop4627" />
    </radialGradient>
    <radialGradient
       cx="34.469643"
       cy="46.828964"
       fx="34.658924"
       fy="46.828964"
       r="89.403168"
       gradientTransform="matrix(0.66585568,0,0,0.54071283,7.8361608,7.9975499)"
       id="d-8"
       gradientUnits="userSpaceOnUse">
      <stop
         stop-color="#321C64"
         stop-opacity=".8"
         offset="30%"
         id="stop4612" />
      <stop
         stop-color="#212F83"
         stop-opacity=".5"
         offset="37%"
         id="stop4614" />
      <stop
         stop-color="#0A47AC"
         stop-opacity=".14"
         offset="48%"
         id="stop4616" />
      <stop
         stop-color="#0250BB"
         stop-opacity="0"
         offset="53%"
         id="stop4618" />
    </radialGradient>
    <radialGradient
       cx="61.200493"
       cy="9.810463"
       fx="61.200493"
       fy="9.810463"
       r="89.403168"
       gradientTransform="matrix(0.66585568,0,0,0.54071283,7.8361608,7.9975499)"
       id="c-2"
       gradientUnits="userSpaceOnUse">
      <stop
         stop-color="#80EBFF"
         offset="0%"
         id="stop4603" />
      <stop
         stop-color="#0DF"
         offset="26%"
         id="stop4605" />
      <stop
         stop-color="#0090ED"
         offset="53%"
         id="stop4607" />
      <stop
         stop-color="#0060DF"
         offset="86%"
         id="stop4609" />
    </radialGradient>
    <radialGradient
       cx="39.89164"
       cy="41.40416"
       fx="39.801777"
       fy="41.40416"
       r="19.256578"
       id="b-4"
       gradientTransform="matrix(0.60018954,0,0,0.59987169,7.8361608,7.9975499)"
       gradientUnits="userSpaceOnUse">
      <stop
         stop-color="#7542E5"
         stop-opacity="0"
         offset="91%"
         id="stop4598" />
      <stop
         stop-color="#0DF"
         stop-opacity=".4"
         offset="100%"
         id="stop4600" />
    </radialGradient>
    <radialGradient
       cx="42.067257"
       cy="30.945194"
       r="22.6548"
       id="a-71"
       gradientTransform="matrix(0.60018954,0,0,0.59987169,7.8361608,7.9975499)"
       fx="42.067257"
       fy="30.945194"
       gradientUnits="userSpaceOnUse">
      <stop
         stop-color="#0DF"
         stop-opacity=".4"
         offset="10%"
         id="stop4593" />
      <stop
         stop-color="#7542E5"
         stop-opacity=".25"
         offset="90%"
         id="stop4595" />
    </radialGradient>
  </defs>
  <sodipodi:namedview
     inkscape:current-layer="svg23"
     inkscape:window-maximized="1"
     inkscape:window-y="0"
     inkscape:window-x="0"
     inkscape:cy="41.19685"
     inkscape:cx="33.007874"
     inkscape:zoom="11.90625"
     showgrid="false"
     id="namedview25"
     inkscape:window-height="1028"
     inkscape:window-width="949"
     inkscape:pageshadow="2"
     inkscape:pageopacity="0"
     guidetolerance="10"
     gridtolerance="10"
     objecttolerance="10"
     borderopacity="1"
     bordercolor="#666666"
     pagecolor="#ffffff"
     inkscape:document-rotation="0"
     inkscape:pagecheckerboard="0"
     inkscape:showpageshadow="0"
     inkscape:deskcolor="#505050" />
  <path
     d="M 2,32 C 2,10.4 10.4,2 32,2 53.6,2 62,10.4 62,32 62,53.6 53.6,62 32,62 10.4,62 2,53.6 2,32"
     id="path2"
     style="fill:#333333;fill-opacity:1;stroke:none;stroke-width:0.3" />
  <path
     d="m 43.128759,29.98387 -0.517825,-1.717287 -1.479677,-2.792544 -1.692686,-1.784491 -1.797092,-1.283465 -1.56008,-0.612031 -1.872095,-0.666033 -3.082356,-0.19621 -1.944101,0.350418 -1.58588,0.487824 -2.814142,1.647083 -1.758692,1.962702 -1.621882,2.634134 -0.637832,2.241714 -0.119407,3.401574 0.608432,2.319118 1.341668,2.640134 0.945648,1.275065 1.308667,1.200063 1.633883,1.105255 2.014904,0.876645 3.37157,0.395421 1.76109,0.0492 2.605333,-0.733838 2.329319,-1.278665 1.498274,-1.278665 1.162262,-1.386071 1.642882,-3.216164 0.36242,-2.200311 z"
     id="path4651"
     inkscape:connector-curvature="0"
     style="fill:#cccccc;stroke-width:0.600031" />
  <path
     d="m 53.413883,24.097569 c -1.011651,-2.431323 -3.060156,-5.056456 -4.670637,-5.8857 a 24.10023,24.10023 0 0 1 2.35512,7.05816 c 0,-0.0053 0,0.0048 0.0035,0.02221 l 0.0041,0.02459 A 21.032871,21.032871 0 0 1 50.381175,41.01183 C 47.713523,46.731326 41.254194,52.592423 31.14368,52.307408 20.221924,51.998393 10.599233,43.901578 8.80274,33.297239 c -0.327015,-1.672285 0,-2.520128 0.164416,-3.879197 a 17.325283,17.325283 0 0 0 -0.376818,3.208362 v 0.12 a 23.285987,23.285987 0 0 0 46.228155,3.932601 c 0.03901,-0.300015 0.0708,-0.59703 0.1056,-0.897046 a 23.881218,23.881218 0 0 0 -1.51021,-11.684396 z"
     id="path4919"
     inkscape:connector-curvature="0"
     style="fill:url(#c-2);stroke-width:0.600031" />
  <path
     d="m 53.413883,24.097569 c -1.011651,-2.431323 -3.060156,-5.056456 -4.670637,-5.8857 a 24.10023,24.10023 0 0 1 2.35512,7.05816 c 0,-0.0053 0,0.0048 0.0035,0.02221 l 0.0041,0.02459 A 21.032871,21.032871 0 0 1 50.381175,41.01183 C 47.713523,46.731326 41.254194,52.592423 31.14368,52.307408 20.221924,51.998393 10.599233,43.901578 8.80274,33.297239 c -0.327015,-1.672285 0,-2.520128 0.164416,-3.879197 a 17.325283,17.325283 0 0 0 -0.376818,3.208362 v 0.12 a 23.285987,23.285987 0 0 0 46.228155,3.932601 c 0.03901,-0.300015 0.0708,-0.59703 0.1056,-0.897046 a 23.881218,23.881218 0 0 0 -1.51021,-11.684396 z"
     id="path4921"
     inkscape:connector-curvature="0"
     style="fill:#ffffff;stroke-width:0.600031" />
  <path
     d="m 8.802809,33.049208 c 1.796492,10.604339 11.419183,18.701154 22.34334,19.010169 10.110514,0.285615 16.569843,-5.576082 19.237581,-11.295575 a 21.032871,21.032871 0 0 0 0.724836,-15.694999 v -0.0222 c 0,-0.0174 -0.0037,-0.0276 -0.0037,-0.0222 l 0.0048,0.03899 c 0.825642,5.386473 -1.917098,10.604939 -6.204917,14.13372 l -0.0132,0.03 c -8.359623,6.793546 -16.354432,4.097609 -17.974515,2.994752 a 14.856757,14.856757 0 0 1 -0.339017,-0.1692 C 21.706958,39.727539 19.694455,35.293912 20.125878,31.492119 a 5.9787049,5.9787049 0 0 1 -5.515482,-3.465777 8.7910482,8.7910482 0 0 1 8.560038,-0.342616 11.602791,11.602791 0 0 0 8.741244,0.343216 c -0.0085,-0.189011 -4.060406,-1.800093 -5.640287,-3.354172 -0.844243,-0.831043 -1.245063,-1.231263 -1.599682,-1.531879 a 7.0575597,7.0575597 0 0 0 -0.599968,-0.454816 c -0.1386,-0.09419 -0.294014,-0.19621 -0.480024,-0.318616 -1.698086,-1.102856 -5.075058,-1.041653 -5.186664,-1.039253 h -0.01069 c -0.92351,-1.168253 -0.858107,-5.020452 -0.805304,-5.824493 a 4.1726127,4.1726127 0 0 0 -0.78004,0.411623 16.965865,16.965865 0 0 0 -2.275316,1.947098 20.401041,20.401041 0 0 0 -2.176311,2.607733 v 0.0037 -0.0037 a 19.614399,19.614399 0 0 0 -3.12436,7.04316 c -0.01069,0.0504 -0.837644,3.662584 -0.430223,5.535881 z"
     id="path4923"
     inkscape:connector-curvature="0"
     style="fill:#ffffff;stroke-width:0.600031" />
  <path
     d="m 40.083004,24.120371 a 12.637244,12.637244 0 0 1 2.16011,2.820144 4.7258409,4.7258409 0 0 1 0.349818,0.285616 c 5.280269,4.860247 2.512328,11.729996 2.306517,12.219622 4.287818,-3.528781 7.030559,-8.747246 6.204917,-14.133719 C 48.471431,18.756699 44.007805,16.113562 40.363819,10.35867 A 28.737864,28.737864 0 0 1 39.81539,9.467623 7.0485593,7.0485593 0 0 1 39.559176,8.987599 4.219415,4.219415 0 0 1 39.21116,8.064151 a 0.06000305,0.06000305 0 0 0 -0.0528,-0.06 0.07740394,0.07740394 0 0 0 -0.04381,0 l -0.0115,0.0061 -0.01741,0.0072 c -0.900047,0.429023 -6.23972,8.874453 0.997249,16.103022 z"
     id="path4925"
     inkscape:connector-curvature="0"
     style="fill:#ffffff;stroke-width:0.600031" />
  <path
     d="m 31.126948,20.931809 3.082356,0.19621 1.872095,0.666033 1.56008,0.612031 1.797092,1.283465 1.692686,1.784491 0.58803,1.109459 a 14.076717,14.076717 0 0 1 0.380418,0.247812 c 0.05101,0.03539 0.0972,0.0708 0.1446,0.106189 A 12.637244,12.637244 0 0 0 40.084204,24.120371 C 32.846035,16.891802 38.185708,8.446373 39.085752,8.01735 l 0.012,-0.0132 c -5.848497,3.420172 -7.832798,9.751097 -8.014609,12.918059 v 0.018 z"
     id="path4927"
     inkscape:connector-curvature="0"
     style="fill:#ffffff;stroke-width:0.600031" />
  <path
     d="m 23.586963,22.615494 a 13.690298,13.690298 0 0 1 0.480024,0.318616 10.756748,10.756748 0 0 1 -0.06539,-5.68349 17.24248,17.24248 0 0 0 -5.604286,4.325622 c 0.114606,-0.0024 3.491578,-0.0636 5.189665,1.039252 z"
     id="path4929"
     inkscape:connector-curvature="0"
     style="fill:#ffffff;stroke-width:0.600031" />
  <path
     d="m 21.417852,34.680403 c 0,0 1.074655,-4.088979 7.695392,-4.088979 0.715838,0 2.76014,-2.039277 2.799744,-2.630513 a 11.602791,11.859695 0 0 1 -8.741246,-0.350816 8.7910482,8.9856958 0 0 0 -8.560037,0.350203 5.9787049,6.1110828 0 0 0 5.515482,3.542514 c -0.431423,3.885971 1.58108,8.417766 6.452128,10.794365 0.1092,0.05337 0.21121,0.111618 0.322818,0.162539 -2.842946,-1.500786 -5.190866,-4.336146 -5.484281,-7.779304 z"
     id="path4931"
     inkscape:connector-curvature="0"
     style="fill:#ffffff;stroke-width:0.606637" />
  <path
     d="m 42.594132,27.223131 a 4.7258409,4.7258409 0 0 0 -0.349818,-0.285616 c -0.04741,-0.03539 -0.0936,-0.0708 -0.1446,-0.106189 A 8.0440101,8.0440101 0 0 0 36.485819,25.46985 c 8.374628,4.182215 6.126315,18.583548 -5.477678,18.039921 A 10.345127,10.345127 0 0 1 27.978587,42.92594 13.644696,13.644696 0 0 1 27.294552,42.646926 c -0.1308,-0.06 -0.262214,-0.12 -0.392419,-0.187209 l 0.01611,0.01015 c 1.620081,1.102856 9.613689,3.798795 17.969115,-2.997151 l 0.0132,-0.03 c 0.205815,-0.489672 2.971357,-7.361221 -2.306514,-12.21967 z"
     id="path4933"
     inkscape:connector-curvature="0"
     style="fill:#ffffff;stroke-width:0.600031" />
  <path
     d="m 51.108566,25.316834 v -0.0222 c 0,-0.0174 -0.0037,-0.0276 0,-0.0222 0.0037,0.0055 0,0.0132 0.0041,0.03899 A 23.243384,23.243384 0 0 0 50.61224,24.159363 c -0.06,-0.1272 -0.12,-0.246011 -0.183009,-0.370219 -0.116993,-0.240011 -0.232811,-0.480024 -0.354018,-0.705635 -0.07499,-0.141 -0.1536,-0.274814 -0.23041,-0.411622 -0.1128,-0.20101 -0.224412,-0.40322 -0.340217,-0.60003 -0.0852,-0.1416 -0.172812,-0.277214 -0.259214,-0.41522 -0.113393,-0.180009 -0.226213,-0.36002 -0.342017,-0.535228 -0.09179,-0.1386 -0.18601,-0.272414 -0.279015,-0.40742 -0.115807,-0.1668 -0.231014,-0.333618 -0.349218,-0.496227 -0.0972,-0.1344 -0.196211,-0.265813 -0.295215,-0.39722 -0.12,-0.1566 -0.235812,-0.313215 -0.355218,-0.466824 A 40.22905,40.22905 0 0 0 47.315073,18.9631 c -0.12,-0.149418 -0.240013,-0.300016 -0.363019,-0.447023 q -0.159016,-0.192611 -0.319816,-0.383421 c -0.06,-0.06899 -0.115805,-0.1398 -0.174609,-0.20881 l 0.0744,0.0912 C 44.50763,15.635338 42.318118,13.442226 40.363219,10.35567 A 28.300442,28.300442 0 0 1 39.81479,9.464623 7.0485593,7.0485593 0 0 1 39.558576,8.984599 4.7696432,4.7696432 0 0 1 39.23816,8.167359 c -0.0041,-0.01508 -0.0115,-0.03779 -0.01371,-0.04979 a 2.7121382,2.7121382 0 0 1 -0.0132,-0.054 0.06000305,0.06000305 0 0 0 -0.0528,-0.06 0.07740394,0.07740394 0 0 0 -0.04381,0 l -0.0115,0.0067 a 0.16200827,0.16200827 0 0 0 -0.01739,0.0089 0.6828348,0.6828348 0 0 0 -0.141,0.10379 0.75603854,0.75603854 0 0 0 -0.0336,0.03 2.2333139,2.2333139 0 0 0 -0.184209,0.195009 l -0.0065,0.0065 c -1.392604,1.636881 -4.954987,8.763443 0.785506,15.15617 C 34.131427,17.186361 37.518599,10.352013 38.990476,8.56152 a 5.1662634,5.1662634 0 0 0 0.287413,0.703236 6.8931513,6.8931513 0 0 0 0.256213,0.480024 c 0.180009,0.307817 0.364218,0.600031 0.548427,0.890446 3.645788,5.755495 8.110015,8.400429 10.74055,14.953364 0,-0.0252 -0.0041,-0.0348 -0.0041,-0.0384 0,-0.0035 0,0.0048 0.0029,0.02221 l 0.0037,0.02221 a 21.033471,21.033471 0 0 1 -0.722438,15.698599 19.292785,19.292785 0 0 1 -3.698588,5.303072 19.329386,19.329386 0 0 0 3.979403,-5.584485 21.035871,21.035871 0 0 0 0.724837,-15.695 z"
     id="path4939"
     inkscape:connector-curvature="0"
     style="fill:#ffffff;stroke-width:0.600031" />
  <path
     d="m 23.069504,27.893241 a 11.859089,11.858454 0 0 0 8.58247,0.211046 11.860925,11.86029 0 0 1 -8.646093,-0.448399 9.0192706,9.0187877 0 0 0 -8.614282,0.275279 l -0.03121,0.02018 h -0.0032 l -0.02569,0.01713 -0.01958,0.01346 -0.01223,0.0087 h -0.0038 l -0.0085,0.0062 h -0.0032 l 0.0109,0.02629 v 0.0036 l 0.01346,0.03058 v 0.0062 l 0.0202,0.04404 v 0.0038 a 4.8941304,4.8938684 0 0 0 0.156001,0.297913 6.0717806,6.0714555 0 0 0 5.415357,3.119841 c -0.428237,3.759716 1.491485,8.125046 6.139686,10.547511 -4.442648,-2.560102 -6.309146,-7.20622 -5.790368,-10.901701 -3.430175,-0.09053 -4.963872,-2.146573 -5.402509,-3.018293 a 9.3802127,9.3797104 0 0 1 8.222138,-0.263038 z"
     id="path4945"
     inkscape:connector-curvature="0"
     style="fill:#ffffff;stroke-width:0.61175" />
  <path
     d="m 24.066387,22.921509 -0.114,-0.0666 0.12,0.0792 z m -0.024,-0.0852 a 10.774749,10.774749 0 0 1 -0.03779,-5.585685 16.971865,16.971865 0 0 0 -5.388274,4.086809 17.576097,17.576097 0 0 1 4.91365,-3.470577 10.907956,10.907956 0 0 0 0.512424,4.969453 z"
     id="path4947"
     inkscape:connector-curvature="0"
     style="fill:#ffffff;stroke-width:0.600031" />
  <path
     d="m 9.364438,35.734565 -0.01861,-0.06661 a 21.532698,21.532698 0 0 1 -0.540029,-2.370722 10.059513,10.059513 0 0 1 0,-3.000153 19.793809,19.793809 0 0 0 -0.21301,2.328119 v 0.12 A 23.265587,23.265587 0 0 0 24.217595,54.711131 23.5356,23.5356 0 0 1 9.364438,35.734565 Z"
     id="path4949"
     inkscape:connector-curvature="0"
     style="fill:#ffffff;stroke-width:0.600031" />
  <path
     d="m 9.177829,33.390845 c -0.407422,-1.873296 0.42002,-5.484881 0.43022,-5.535884 a 19.614399,19.614399 0 0 1 3.12436,-7.045558 v 0.0037 -0.0037 a 20.401041,20.401041 0 0 1 2.173912,-2.604734 16.965865,16.965865 0 0 1 2.275315,-1.947099 2.002902,2.002902 0 0 1 0.0984,-0.06 c -0.0085,1.768888 0.0924,4.754042 0.911447,5.732691 h 0.01069 c 0.112207,-0.0059 3.501178,-0.1554 5.234666,0.900047 0.192611,0.12 0.351019,0.21541 0.492627,0.306015 a 7.1565648,7.1565648 0 0 1 0.617429,0.438622 c 0.36362,0.291617 0.77644,0.681035 1.645885,1.489275 1.260066,1.170662 4.001604,2.33472 5.186664,2.889149 -1.154453,-0.58143 -3.878592,-1.824093 -5.106854,-3.033155 -0.844243,-0.831043 -1.245063,-1.231264 -1.599682,-1.53188 a 7.0575597,7.0575597 0 0 0 -0.599968,-0.45482 c -0.1386,-0.09421 -0.294015,-0.196212 -0.480024,-0.318618 -1.698087,-1.102854 -5.075059,-1.041653 -5.186664,-1.039253 h -0.01069 c -0.843706,-1.067454 -0.861707,-4.376024 -0.818505,-5.551483 0,-0.0456 0,-0.08701 0.0048,-0.126 v -0.07621 c 0,-0.0252 0,-0.04979 0.0041,-0.0708 0,0 -0.0041,-0.0043 -0.0096,-0.0043 h -0.02101 l -0.0132,0.0048 -0.0192,0.0072 -0.01861,0.0077 -0.02221,0.01026 -0.024,0.01137 -0.024,0.012 -0.02941,0.0144 -0.02341,0.01269 -0.0348,0.018 -0.01981,0.01069 a 11.57579,11.57579 0 0 0 -0.518437,0.300008 16.965865,16.965865 0 0 0 -2.275317,1.947099 20.401041,20.401041 0 0 0 -2.175711,2.614934 v 0.0037 -0.0037 A 19.614399,19.614399 0 0 0 9.232872,27.76116 C 9.221962,27.81156 8.392829,31.421347 8.802651,33.297043 10.331593,42.3192 17.528959,49.528569 26.37221,51.666476 17.701213,49.418317 10.685055,42.287553 9.177779,33.390902 Z"
     id="path4951"
     inkscape:connector-curvature="0"
     style="fill:#ffffff;stroke-width:0.600031" />
</svg>
