<?xml version="1.0" encoding="UTF-8" standalone="no"?>
<svg
   viewbox="0 0 200 200"
   version="1.1"
   id="svg4"
   sodipodi:docname="gnome-software.svg"
   width="64"
   height="64"
   inkscape:version="1.3.2 (091e20ef0f, 2023-11-25, custom)"
   xmlns:inkscape="http://www.inkscape.org/namespaces/inkscape"
   xmlns:sodipodi="http://sodipodi.sourceforge.net/DTD/sodipodi-0.dtd"
   xmlns="http://www.w3.org/2000/svg"
   xmlns:svg="http://www.w3.org/2000/svg">
  <defs
     id="defs8" />
  <sodipodi:namedview
     id="namedview6"
     pagecolor="#ffffff"
     bordercolor="#666666"
     borderopacity="1.0"
     inkscape:pageshadow="2"
     inkscape:pageopacity="0.0"
     inkscape:pagecheckerboard="0"
     showgrid="false"
     inkscape:zoom="4"
     inkscape:cx="39"
     inkscape:cy="36.5"
     inkscape:window-width="949"
     inkscape:window-height="509"
     inkscape:window-x="0"
     inkscape:window-y="0"
     inkscape:window-maximized="1"
     inkscape:current-layer="svg4"
     showguides="true"
     inkscape:showpageshadow="0"
     inkscape:deskcolor="#505050" />
  <path
     d="M 2,32 C 2,10.4 10.4,2 32,2 53.6,2 62,10.4 62,32 62,53.6 53.6,62 32,62 10.4,62 2,53.6 2,32"
     id="path2"
     style="stroke-width:0.3;fill:#333333;fill-opacity:1;stroke:none" />
  <path
     id="rect6676"
     style="opacity:1;fill:#ffffff;stroke-width:5;stroke-linecap:round;stroke-linejoin:round"
     d="m 17,25 h 8 c 1.662,0 3,1.338 3,3 v 8 c 0,1.662 -1.338,3 -3,3 h -8 c -1.662,0 -3,-1.338 -3,-3 v -8 c 0,-1.662 1.338,-3 3,-3 z" />
  <circle
     style="opacity:1;fill:#ffffff;fill-opacity:1;stroke-width:5;stroke-linecap:round;stroke-linejoin:round"
     id="path6885"
     cx="41"
     cy="21"
     r="7" />
  <g
     id="rect7117">
    <path
       style="color:#000000;fill:#ffffff;stroke:none;stroke-width:0.945416;stroke-linecap:round;stroke-linejoin:round;-inkscape-stroke:none"
       d="m 45.836804,34.185177 -11.107796,6.106854 c -0.972011,0.533903 -0.972011,1.882035 0,2.415938 l 11.107795,6.106854 C 46.800842,49.344467 48.000054,48.674805 48,47.606853 V 35.393145 c 5.4e-5,-1.067951 -1.199159,-1.737613 -2.163196,-1.207968 z"
       id="path7446"
       sodipodi:nodetypes="ccccccc" />
  </g>
</svg>
