<?xml version="1.0" encoding="UTF-8" standalone="no"?>
<!-- Created with Inkscape (http://www.inkscape.org/) -->

<svg
   width="64"
   height="64"
   viewBox="0 0 16.933333 16.933333"
   version="1.1"
   id="svg5"
   inkscape:version="1.3.2 (091e20ef0f, 2023-11-25, custom)"
   sodipodi:docname="kate.svg"
   xmlns:inkscape="http://www.inkscape.org/namespaces/inkscape"
   xmlns:sodipodi="http://sodipodi.sourceforge.net/DTD/sodipodi-0.dtd"
   xmlns="http://www.w3.org/2000/svg"
   xmlns:svg="http://www.w3.org/2000/svg">
  <sodipodi:namedview
     id="namedview7"
     pagecolor="#ffffff"
     bordercolor="#666666"
     borderopacity="1.0"
     inkscape:pageshadow="2"
     inkscape:pageopacity="0.0"
     inkscape:pagecheckerboard="0"
     inkscape:document-units="px"
     showgrid="false"
     units="px"
     height="48px"
     inkscape:zoom="6.1640625"
     inkscape:cx="42.342205"
     inkscape:cy="36.015209"
     inkscape:window-width="949"
     inkscape:window-height="509"
     inkscape:window-x="0"
     inkscape:window-y="0"
     inkscape:window-maximized="1"
     inkscape:current-layer="svg5"
     inkscape:lockguides="true"
     inkscape:showpageshadow="0"
     inkscape:deskcolor="#505050" />
  <defs
     id="defs2" />
  <path
     id="rect863"
     style="fill:#333333;fill-opacity:1;stroke-width:1.07143"
     d="M 32 2 C 10.399998 2 2 10.399998 2 32 C 2 53.600001 10.399998 62 32 62 C 53.600001 62 62 53.600001 62 32 C 62 10.399998 53.600001 2 32 2 z "
     transform="scale(0.26458333)" />
  <path
     id="path24-3"
     style="fill:#ffffff;fill-opacity:1;stroke-width:0.166837"
     d="M 14.028342,3.5948728 C 12.099553,4.2530945 9.6117873,5.0111147 6.7242478,5.8106842 4.703713,6.3702111 3.574497,7.6620009 4.4275997,9.4555338 5.2825109,11.252893 6.7596649,11.294614 8.583492,12.514593 c 1.423875,0.952394 1.772091,1.437165 2.690865,2.757307 -0.191027,-1.824008 -1.07341,-4.174858 -1.4860657,-5.210645 0.164622,0.09847 0.3192207,0.187227 0.4695167,0.270747 0.0034,0.002 0.0071,0.0041 0.0105,0.0061 0.27336,0.161105 0.556835,0.301125 0.850446,0.423009 0.0094,0.0039 0.01882,0.0077 0.02824,0.01162 0.394837,0.167345 0.782591,0.290307 1.221962,0.38868 0.0105,0.0024 0.02097,0.0048 0.03157,0.0072 0.601011,0.140679 1.238947,0.229208 1.915718,0.281268 0.03223,0.0034 0.06184,0.0071 0.09468,0.0105 -0.002,-0.0014 -0.0035,-0.0025 -0.0056,-0.0039 0.002,1.46e-4 0.0041,4.07e-4 0.0061,5.53e-4 C 11.529461,9.405486 10.98222,9.004066 9.3325796,7.5979167 c -1.1067385,0.055789 -0.9851151,0.04618 -1.6377734,0.083605 7.699e-4,0.00129 0.00145,0.00259 0.00222,0.00388 -0.00138,7.91e-5 -0.00138,-7.96e-5 -0.00276,0 0.00903,0.01274 0.017665,0.025893 0.026577,0.038757 0.067922,0.1120078 0.1366339,0.2209786 0.2065211,0.326669 8.49e-5,1.287e-4 -8.51e-5,4.252e-4 0,5.537e-4 C 8.6009477,9.2288166 8.7406823,10.710068 7.3216642,11.005273 5.8512643,11.311178 4.433677,10.042017 4.8367662,8.6826021 5.2745121,7.20645 7.1639152,7.4896968 9.1460269,7.2336319 11.128139,6.9775229 12.939614,5.0336649 14.028896,3.5948728 Z" />
  <path
     id="path18"
     style="fill:#ffffff;fill-opacity:1;stroke-width:0.166837"
     d="M 8.1272629,2.2300609 C 7.1331321,2.2292955 5.9897518,2.5126796 4.8810602,3.3158195 3.7977656,4.1006042 3.3230718,4.3156869 2.7975774,4.5765401 3.26582,4.6122438 6.0663745,4.2128098 6.5620208,5.8583 6.8197166,5.7783686 7.7145784,5.5301093 8.281185,5.3655284 7.8356432,4.4972294 7.2588998,2.8488973 10.283831,2.7339061 9.7651613,2.452477 9.0044372,2.2307458 8.1272629,2.2300609 Z" />
</svg>
