<?xml version="1.0" encoding="UTF-8" standalone="no"?>
<svg
   viewbox="0 0 200 200"
   version="1.1"
   id="svg4"
   sodipodi:docname="kvantum.svg"
   width="64"
   height="64"
   inkscape:version="1.3.2 (091e20ef0f, 2023-11-25, custom)"
   xmlns:inkscape="http://www.inkscape.org/namespaces/inkscape"
   xmlns:sodipodi="http://sodipodi.sourceforge.net/DTD/sodipodi-0.dtd"
   xmlns="http://www.w3.org/2000/svg"
   xmlns:svg="http://www.w3.org/2000/svg">
  <defs
     id="defs8" />
  <sodipodi:namedview
     id="namedview6"
     pagecolor="#ffffff"
     bordercolor="#666666"
     borderopacity="1.0"
     inkscape:pageshadow="2"
     inkscape:pageopacity="0.0"
     inkscape:pagecheckerboard="0"
     showgrid="false"
     inkscape:zoom="6.6"
     inkscape:cx="31.212121"
     inkscape:cy="21.287879"
     inkscape:window-width="949"
     inkscape:window-height="1028"
     inkscape:window-x="0"
     inkscape:window-y="0"
     inkscape:window-maximized="1"
     inkscape:current-layer="svg4"
     showguides="false"
     inkscape:showpageshadow="0"
     inkscape:deskcolor="#505050" />
  <path
     d="M 2,32 C 2,10.4 10.4,2 32,2 53.6,2 62,10.4 62,32 62,53.6 53.6,62 32,62 10.4,62 2,53.6 2,32"
     id="path2"
     style="stroke-width:0.3;fill:#333333;fill-opacity:1;stroke:none" />
  <path
     id="rect934"
     style="fill:#ffffff"
     d="m 15,16 c -1.662,0 -3,1.338 -3,3 v 26 c 0,1.662 1.338,3 3,3 h 34 c 1.662,0 3,-1.338 3,-3 V 19 c 0,-1.662 -1.338,-3 -3,-3 z m -1,6 h 36 v 23 c 0,0.554 -0.446,1 -1,1 H 15 c -0.554,0 -1,-0.446 -1,-1 z m 25,4 a 3,3 0 0 0 -2.820312,2 H 19 c -0.554,0 -1,0.446 -1,1 0,0.554 0.446,1 1,1 H 36.179688 A 3,3 0 0 0 39,32 3,3 0 0 0 41.820312,30 H 45 c 0.554,0 1,-0.446 1,-1 0,-0.554 -0.446,-1 -1,-1 H 41.828125 A 3,3 0 0 0 39,26 Z M 25,36 a 3,3 0 0 0 -2.828125,2 H 19 c -0.554,0 -1,0.446 -1,1 0,0.554 0.446,1 1,1 h 3.179688 A 3,3 0 0 0 25,42 3,3 0 0 0 27.820312,40 H 45 c 0.554,0 1,-0.446 1,-1 0,-0.554 -0.446,-1 -1,-1 H 27.820312 A 3,3 0 0 0 25,36 Z" />
</svg>
