<?xml version="1.0" encoding="UTF-8" standalone="no"?>
<svg
   viewbox="0 0 200 200"
   version="1.1"
   id="svg4"
   sodipodi:docname="wps-office-etmain.svg"
   width="64"
   height="64"
   inkscape:version="1.3.2 (091e20ef0f, 2023-11-25, custom)"
   xmlns:inkscape="http://www.inkscape.org/namespaces/inkscape"
   xmlns:sodipodi="http://sodipodi.sourceforge.net/DTD/sodipodi-0.dtd"
   xmlns="http://www.w3.org/2000/svg"
   xmlns:svg="http://www.w3.org/2000/svg">
  <defs
     id="defs8" />
  <sodipodi:namedview
     id="namedview6"
     pagecolor="#ffffff"
     bordercolor="#666666"
     borderopacity="1.0"
     inkscape:pageshadow="2"
     inkscape:pageopacity="0.0"
     inkscape:pagecheckerboard="0"
     showgrid="false"
     inkscape:zoom="8.6510095"
     inkscape:cx="25.603948"
     inkscape:cy="35.313798"
     inkscape:window-width="949"
     inkscape:window-height="1028"
     inkscape:window-x="0"
     inkscape:window-y="0"
     inkscape:window-maximized="1"
     inkscape:current-layer="svg4"
     inkscape:showpageshadow="0"
     inkscape:deskcolor="#505050" />
  <path
     d="M 2,32 C 2,10.4 10.4,2 32,2 53.6,2 62,10.4 62,32 62,53.6 53.6,62 32,62 10.4,62 2,53.6 2,32"
     id="path2"
     style="stroke-width:0.3;fill:#333333;fill-opacity:1" />
  <path
     id="rect1688"
     style="fill:#ffffff;stroke-linejoin:round"
     d="m 21,18 c -4.418278,0 -8,3.581722 -8,8 0,4.418278 3.581722,8 8,8 h 22 c 2.209139,0 4,1.790861 4,4 0,2.209139 -1.790861,4 -4,4 H 16 c -1.108,0 -2,0.892 -2,2 0,1.108 0.892,2 2,2 h 27 c 4.418278,0 8,-3.581722 8,-8 0,-4.418278 -3.581722,-8 -8,-8 H 21 c -2.209139,0 -4,-1.790861 -4,-4 0,-2.209139 1.790861,-4 4,-4 h 27 c 1.108,0 2,-0.892 2,-2 0,-1.108 -0.892,-2 -2,-2 z"
     sodipodi:nodetypes="sssssssssssssssssss" />
</svg>
