<?xml version="1.0" encoding="UTF-8" standalone="no"?>
<svg
   viewbox="0 0 200 200"
   version="1.1"
   id="svg4"
   sodipodi:docname="calligrasheets.svg"
   width="64"
   height="64"
   inkscape:version="1.3.2 (091e20ef0f, 2023-11-25, custom)"
   xmlns:inkscape="http://www.inkscape.org/namespaces/inkscape"
   xmlns:sodipodi="http://sodipodi.sourceforge.net/DTD/sodipodi-0.dtd"
   xmlns="http://www.w3.org/2000/svg"
   xmlns:svg="http://www.w3.org/2000/svg">
  <defs
     id="defs8" />
  <sodipodi:namedview
     id="namedview6"
     pagecolor="#ffffff"
     bordercolor="#666666"
     borderopacity="1.0"
     inkscape:pageshadow="2"
     inkscape:pageopacity="0.0"
     inkscape:pagecheckerboard="0"
     showgrid="false"
     inkscape:zoom="5.656854"
     inkscape:cx="31.466253"
     inkscape:cy="23.422913"
     inkscape:window-width="773"
     inkscape:window-height="1028"
     inkscape:window-x="0"
     inkscape:window-y="0"
     inkscape:window-maximized="1"
     inkscape:current-layer="svg4"
     showguides="true"
     inkscape:showpageshadow="0"
     inkscape:deskcolor="#505050" />
  <path
     d="M 2,32 C 2,10.4 10.4,2 32,2 53.6,2 62,10.4 62,32 62,53.6 53.6,62 32,62 10.4,62 2,53.6 2,32"
     id="path2"
     style="stroke-width:0.3;fill:#333333;fill-opacity:1;stroke:none" />
  <path
     id="rect8988"
     style="fill:#ffffff;stroke-linecap:round;stroke-linejoin:round"
     d="m 17,16 h 30 c 2.216,0 4,1.784 4,4 v 24 c 0,2.216 -1.784,4 -4,4 H 17 c -2.216,0 -4,-1.784 -4,-4 V 20 c 0,-2.216 1.784,-4 4,-4 z" />
  <path
     id="rect925"
     style="fill:#4d4d4d;stroke-linecap:round;stroke-linejoin:round"
     d="m 19,30 h 2 c 1.108,0 2,0.892 2,2 v 10 c 0,1.108 -0.892,2 -2,2 h -2 c -1.108,0 -2,-0.892 -2,-2 V 32 c 0,-1.108 0.892,-2 2,-2 z" />
  <path
     id="rect927"
     style="fill:#4d4d4d;stroke-linecap:round;stroke-linejoin:round"
     d="m 27,20 h 2 c 1.108,0 2,0.892 2,2 v 20 c 0,1.108 -0.892,2 -2,2 h -2 c -1.108,0 -2,-0.892 -2,-2 V 22 c 0,-1.108 0.892,-2 2,-2 z" />
  <path
     id="rect929"
     style="fill:#4d4d4d;stroke-linecap:round;stroke-linejoin:round"
     d="m 35,34 h 2 c 1.108,0 2,0.892 2,2 v 6 c 0,1.108 -0.892,2 -2,2 h -2 c -1.108,0 -2,-0.892 -2,-2 v -6 c 0,-1.108 0.892,-2 2,-2 z" />
  <path
     id="rect10220"
     style="fill:#4d4d4d;stroke-linecap:round;stroke-linejoin:round"
     d="m 43,26 h 2 c 1.108,0 2,0.892 2,2 v 14 c 0,1.108 -0.892,2 -2,2 h -2 c -1.108,0 -2,-0.892 -2,-2 V 28 c 0,-1.108 0.892,-2 2,-2 z" />
</svg>
