<?xml version="1.0" encoding="UTF-8" standalone="no"?>
<!-- Created with Inkscape (http://www.inkscape.org/) -->

<svg
   width="64"
   height="64"
   viewBox="0 0 16.933333 16.933333"
   version="1.1"
   id="svg5"
   inkscape:version="1.3.2 (091e20ef0f, 2023-11-25, custom)"
   sodipodi:docname="dropbox.svg"
   xmlns:inkscape="http://www.inkscape.org/namespaces/inkscape"
   xmlns:sodipodi="http://sodipodi.sourceforge.net/DTD/sodipodi-0.dtd"
   xmlns="http://www.w3.org/2000/svg"
   xmlns:svg="http://www.w3.org/2000/svg">
  <sodipodi:namedview
     id="namedview7"
     pagecolor="#ffffff"
     bordercolor="#666666"
     borderopacity="1.0"
     inkscape:pageshadow="2"
     inkscape:pageopacity="0.0"
     inkscape:pagecheckerboard="0"
     inkscape:document-units="px"
     showgrid="false"
     units="px"
     height="48px"
     inkscape:zoom="11.313708"
     inkscape:cx="49.453281"
     inkscape:cy="34.471456"
     inkscape:window-width="1908"
     inkscape:window-height="509"
     inkscape:window-x="0"
     inkscape:window-y="0"
     inkscape:window-maximized="1"
     inkscape:current-layer="svg5"
     inkscape:lockguides="true"
     showguides="false"
     inkscape:showpageshadow="0"
     inkscape:deskcolor="#505050" />
  <defs
     id="defs2" />
  <path
     id="path1039"
     style="fill:#333333;fill-opacity:1;stroke-width:0.529167;stroke-linecap:round;stroke-linejoin:round"
     d="m 8.4335941,0.46392517 c -5.7150005,0 -7.93750036,2.22249983 -7.93750036,7.93750033 0,5.7150005 2.22249986,7.9375005 7.93750036,7.9375005 5.7149999,0 7.9374999,-2.2225 7.9374999,-7.9375005 0,-5.7150005 -2.2225,-7.93750033 -7.9374999,-7.93750033 z" />
  <path
     id="rect849"
     style="opacity:1;fill:#ffffff;stroke-width:0.699742"
     d="M 21 15 L 10 22 L 21 29 L 32 22 L 21 15 z M 32 22 L 43 29 L 54 22 L 43 15 L 32 22 z M 43 29 L 32 36 L 43 43 L 54 36 L 43 29 z M 32 36 L 21 29 L 10 36 L 21 43 L 32 36 z M 32 38 L 21 45 L 32 52 L 43 45 L 32 38 z "
     transform="scale(0.26458333)" />
</svg>
