<?xml version="1.0" encoding="UTF-8" standalone="no"?>
<svg
   viewbox="0 0 200 200"
   version="1.1"
   id="svg4"
   sodipodi:docname="games-chess.svg"
   width="64"
   height="64"
   inkscape:version="1.3.2 (091e20ef0f, 2023-11-25, custom)"
   xmlns:inkscape="http://www.inkscape.org/namespaces/inkscape"
   xmlns:sodipodi="http://sodipodi.sourceforge.net/DTD/sodipodi-0.dtd"
   xmlns="http://www.w3.org/2000/svg"
   xmlns:svg="http://www.w3.org/2000/svg">
  <defs
     id="defs8" />
  <sodipodi:namedview
     id="namedview6"
     pagecolor="#ffffff"
     bordercolor="#666666"
     borderopacity="1.0"
     inkscape:pageshadow="2"
     inkscape:pageopacity="0.0"
     inkscape:pagecheckerboard="0"
     showgrid="false"
     inkscape:zoom="11.313708"
     inkscape:cx="36.592778"
     inkscape:cy="39.067651"
     inkscape:window-width="750"
     inkscape:window-height="509"
     inkscape:window-x="0"
     inkscape:window-y="0"
     inkscape:window-maximized="1"
     inkscape:current-layer="svg4"
     showguides="true"
     inkscape:showpageshadow="0"
     inkscape:deskcolor="#505050" />
  <path
     d="M 2,32 C 2,10.4 10.4,2 32,2 53.6,2 62,10.4 62,32 62,53.6 53.6,62 32,62 10.4,62 2,53.6 2,32"
     id="path2"
     style="stroke-width:0.3;fill:#333333;fill-opacity:1" />
  <path
     id="path18"
     style="fill:#ffffff;fill-opacity:1;stroke-width:0.456645;marker:none"
     d="m 28.563839,12 -0.0078,4.305455 L 18,25.149092 l 2.127999,4.421818 5.20275,-1.834548 a 4.3679994,4.538182 0 0 0 3.42125,1.718185 c 2.290623,-0.0029 4.114376,-1.843015 4.277,-4.216367 v 4.33273 c -0.0032,2.156917 -1.210021,3.82296 -3.2305,4.317274 -1.802751,0.44125 -2.375169,-0.13377 -4.541248,0.783632 -3.291905,1.394503 -5.442052,4.317528 -5.4425,8.010909 l 4.567498,4.839999 C 21.852395,47.522254 19.589,49.49818 19.589,52 h 25.983999 c 0,-2.795056 -2.015491,-4.477276 -4.258624,-4.477276 L 46,42.778179 V 29.454547 c 0,-7.390954 -5.766659,-13.032728 -12.880002,-13.032728 -0.07616,0.0032 -0.152221,0.0071 -0.228373,0.01181 A 4.1444473,4.3059201 0 0 0 32.790979,15.342727 C 32.360006,13.389215 30.492945,12.003724 28.563856,12 Z" />
  <path
     id="rect1616"
     style="fill:#333333;fill-opacity:1;stroke-width:5.32786;stroke-linecap:round;stroke-linejoin:round"
     d="m 21.618544,45.523438 2.070832,2 h 18.564687 l 2.165058,-2 z" />
</svg>
