<?xml version="1.0" encoding="UTF-8" standalone="no"?>
<svg
   viewbox="0 0 200 200"
   version="1.1"
   id="svg4"
   sodipodi:docname="polari.svg"
   width="64"
   height="64"
   inkscape:version="1.3.2 (091e20ef0f, 2023-11-25, custom)"
   xmlns:inkscape="http://www.inkscape.org/namespaces/inkscape"
   xmlns:sodipodi="http://sodipodi.sourceforge.net/DTD/sodipodi-0.dtd"
   xmlns="http://www.w3.org/2000/svg"
   xmlns:svg="http://www.w3.org/2000/svg">
  <defs
     id="defs8" />
  <sodipodi:namedview
     id="namedview6"
     pagecolor="#ffffff"
     bordercolor="#666666"
     borderopacity="1.0"
     inkscape:pageshadow="2"
     inkscape:pageopacity="0.0"
     inkscape:pagecheckerboard="0"
     showgrid="false"
     inkscape:zoom="5.6568542"
     inkscape:cx="30.052038"
     inkscape:cy="36.062446"
     inkscape:window-width="949"
     inkscape:window-height="547"
     inkscape:window-x="0"
     inkscape:window-y="0"
     inkscape:window-maximized="1"
     inkscape:current-layer="svg4"
     showguides="false"
     inkscape:showpageshadow="0"
     inkscape:deskcolor="#505050" />
  <path
     d="M 2,32 C 2,10.4 10.4,2 32,2 53.6,2 62,10.4 62,32 62,53.6 53.6,62 32,62 10.4,62 2,53.6 2,32"
     id="path2"
     style="stroke-width:0.3;fill:#333333;fill-opacity:1" />
  <path
     id="rect6858"
     style="fill:#ffffff;fill-opacity:1;stroke-width:1.06654"
     d="m 19,17 c -3.324,0 -6,2.676 -6,6 v 14 c 0,3.324 2.676,6 6,6 h 4 v 8 l 8,-8 h 14 c 3.324,0 6,-2.676 6,-6 V 23 c 0,-3.324 -2.676,-6 -6,-6 z"
     sodipodi:nodetypes="sssscccsssss" />
  <path
     id="rect2401"
     style="fill:#333333;stroke-width:4;stroke-linecap:round;stroke-linejoin:round;fill-opacity:1"
     d="m 29.5,20 -0.75,5 h -4 l -0.25,2 h 3.949219 l -0.898438,6 H 23.75 l -0.25,2 h 3.75 l -0.75,5 h 2 l 0.75,-5 h 4 l -0.75,5 h 2 l 0.75,-5 h 4 l 0.25,-2 h -3.949219 l 0.898438,-6 H 40.25 l 0.25,-2 h -3.75 l 0.75,-5 h -2 l -0.75,5 h -4 l 0.75,-5 z m 0.949219,7 h 4 l -0.898438,6 h -4 z" />
</svg>
